<?xml version="1.0" encoding="iso-8859-1"?>
<!-- Generator: Adobe Illustrator 19.0.0, SVG Export Plug-In . SVG Version: 6.00 Build 0)  -->
<svg version="1.1" id="Layer_1" xmlns="http://www.w3.org/2000/svg" xmlns:xlink="http://www.w3.org/1999/xlink" x="0px" y="0px"
	 viewBox="0 0 460 460" style="enable-background:new 0 0 460 460;" xml:space="preserve">
<path d="M369.939,0v30h38.848l-66.272,66.272c-38.17-33.169-86.447-51.277-137.51-51.277c-56.093,0-108.829,21.844-148.492,61.508
	L45.905,117.11l137.886,137.886l-49.699,49.699H65.244v30h38.849l-35.245,35.245H0v30h60.061V460h30v-68.848l35.244-35.244v38.848
	h30v-68.848l49.699-49.699L342.89,414.095l10.606-10.607c39.664-39.664,61.508-92.399,61.508-148.492
	c0-51.063-18.108-99.34-51.277-137.51L430,51.213v38.848h30V0H369.939z M88.765,117.542c32.456-27.538,73.196-42.547,116.24-42.547
	c43.045,0,83.775,15.017,116.231,42.556L205.005,233.783L88.765,117.542z M342.452,371.23L226.218,254.995L342.443,138.77
	C399.063,205.627,399.072,304.373,342.452,371.23z"/>
<g>
</g>
<g>
</g>
<g>
</g>
<g>
</g>
<g>
</g>
<g>
</g>
<g>
</g>
<g>
</g>
<g>
</g>
<g>
</g>
<g>
</g>
<g>
</g>
<g>
</g>
<g>
</g>
<g>
</g>
</svg>
